<?xml version="1.0" standalone="no"?>
<!DOCTYPE svg PUBLIC "-//W3C//DTD SVG 20010904//EN"
 "http://www.w3.org/TR/2001/REC-SVG-20010904/DTD/svg10.dtd">
<svg version="1.0" xmlns="http://www.w3.org/2000/svg"
 width="500.000000pt" height="500.000000pt" viewBox="0 0 500.000000 500.000000"
 preserveAspectRatio="xMidYMid meet">
<metadata>
Created by potrace 1.14, written by Peter Selinger 2001-2017
</metadata>
<g transform="translate(0.000000,500.000000) scale(0.100000,-0.100000)"
fill="#000000" stroke="none">
<path d="M1100 4395 c0 -87 3 -105 15 -105 12 0 15 18 15 105 0 87 -3 105 -15
105 -12 0 -15 -18 -15 -105z"/>
<path d="M910 4355 c0 -28 32 -95 46 -95 20 0 17 24 -6 70 -21 40 -40 52 -40
25z"/>
<path d="M1296 4363 c-11 -11 -36 -73 -36 -89 0 -8 6 -14 14 -14 14 0 46 67
46 95 0 16 -12 20 -24 8z"/>
<path d="M680 4311 c0 -10 31 -46 71 -81 53 -47 73 -60 82 -51 9 9 -6 28 -63
81 -40 39 -77 70 -82 70 -4 0 -8 -8 -8 -19z"/>
<path d="M1460 4264 c-66 -63 -88 -100 -56 -92 22 5 146 128 146 144 0 26 -19
14 -90 -52z"/>
<path d="M1037 4200 c-136 -35 -237 -162 -237 -300 0 -37 8 -86 17 -114 24
-66 91 -139 161 -173 75 -37 191 -40 263 -6 64 29 125 87 157 147 23 44 27 63
27 141 0 78 -4 97 -27 141 -31 60 -94 119 -154 145 -51 23 -153 32 -207 19z"/>
<path d="M637 4094 c-11 -11 2 -23 40 -39 75 -31 103 -8 31 25 -46 21 -61 24
-71 14z"/>
<path d="M1522 4080 c-43 -19 -54 -49 -16 -42 31 6 87 36 86 47 -2 17 -25 16
-70 -5z"/>
<path d="M500 3895 c0 -13 15 -15 108 -13 63 2 107 7 107 13 0 6 -44 11 -107
13 -93 2 -108 0 -108 -13z"/>
<path d="M1517 3904 c-17 -17 13 -24 109 -24 86 0 104 3 104 15 0 12 -18 15
-103 15 -57 0 -107 -3 -110 -6z"/>
<path d="M673 3734 c-39 -17 -49 -32 -28 -41 19 -7 105 31 105 47 0 14 -39 11
-77 -6z"/>
<path d="M1480 3740 c0 -16 86 -54 105 -47 22 9 11 24 -32 42 -41 17 -73 19
-73 5z"/>
<path d="M2899 3592 c-223 -279 -269 -528 -134 -742 15 -25 64 -82 108 -127
l79 -81 -7 -96 -7 -96 -214 0 -213 0 -3 58 -3 57 59 64 c32 36 72 93 88 128
28 58 30 70 26 156 -3 87 -6 100 -45 178 -23 46 -63 110 -88 142 -38 48 -49
56 -61 46 -28 -23 -106 -140 -137 -207 -27 -57 -32 -80 -35 -159 -4 -86 -2
-98 26 -158 19 -40 54 -88 91 -127 63 -64 68 -79 55 -147 l-6 -31 -214 0 -214
0 0 91 0 91 85 89 c62 66 94 110 122 167 35 72 38 84 41 187 4 99 1 119 -23
190 -14 44 -45 112 -67 150 -50 85 -159 225 -173 221 -22 -6 -143 -170 -187
-252 -65 -125 -81 -189 -76 -311 3 -94 5 -104 47 -187 33 -68 62 -108 126
-173 l82 -85 -5 -89 -5 -89 -212 0 c-238 0 -225 -4 -225 75 0 39 5 48 59 103
32 33 71 86 87 119 26 52 29 68 29 158 -1 86 -4 108 -27 157 -27 58 -88 152
-130 201 l-24 27 -26 -27 c-116 -125 -181 -300 -158 -424 15 -78 46 -134 115
-208 l61 -66 -4 -57 -4 -58 -129 0 -129 0 0 -30 0 -30 1200 0 1200 0 0 30 0
30 -135 0 -135 0 0 61 c0 61 0 62 59 124 32 35 72 90 87 122 25 51 29 69 28
143 -1 67 -6 98 -27 148 -28 69 -102 184 -139 219 l-24 23 -51 -68 c-105 -139
-137 -223 -132 -340 5 -98 41 -173 122 -254 57 -58 57 -58 57 -118 l0 -60
-214 0 -213 0 -7 31 c-3 17 -6 62 -6 100 l0 68 62 58 c71 68 149 181 175 256
13 37 18 80 17 152 -1 118 -27 200 -102 328 -52 88 -148 207 -165 206 -7 0
-33 -26 -58 -57z"/>
<path d="M741 3546 c-45 -46 -69 -76 -62 -80 21 -13 169 123 157 143 -12 18
-19 14 -95 -63z"/>
<path d="M1390 3607 c0 -16 131 -147 148 -147 26 0 9 28 -56 93 -65 65 -92 81
-92 54z"/>
<path d="M926 3490 c-19 -48 -20 -70 -3 -70 12 0 47 73 47 98 0 28 -29 9 -44
-28z"/>
<path d="M1260 3518 c0 -27 34 -98 46 -98 18 0 18 21 -2 70 -15 37 -44 56 -44
28z"/>
<path d="M1100 3395 c0 -87 3 -105 15 -105 12 0 15 18 15 105 0 87 -3 105 -15
105 -12 0 -15 -18 -15 -105z"/>
<path d="M1635 2061 c-48 -22 -69 -44 -90 -94 -21 -51 -19 -113 6 -164 26 -54
64 -81 131 -95 89 -17 165 22 128 67 -8 10 -18 11 -36 4 -71 -26 -145 5 -165
70 -16 55 -5 104 33 136 29 25 38 27 102 23 70 -3 71 -3 71 22 0 49 -102 67
-180 31z"/>
<path d="M1886 2064 c-13 -13 -16 -43 -16 -168 0 -107 4 -157 13 -169 10 -15
27 -17 117 -15 105 3 105 3 105 28 0 24 -3 25 -80 30 l-80 5 -3 145 c-2 137
-7 159 -34 160 -4 0 -14 -7 -22 -16z"/>
<path d="M2182 2068 c-8 -8 -12 -63 -12 -180 0 -147 2 -169 16 -175 9 -3 24
-2 33 4 13 9 16 36 19 173 2 161 -2 190 -32 190 -7 0 -17 -5 -24 -12z"/>
<path d="M2322 2068 c-8 -8 -12 -61 -12 -174 0 -135 3 -164 16 -175 11 -9 20
-10 32 -2 14 8 18 30 20 118 l3 108 42 -64 c58 -88 72 -88 128 -2 l44 67 5
-114 c4 -100 7 -115 23 -118 42 -8 47 12 47 177 0 228 -19 243 -116 96 -31
-47 -60 -85 -65 -85 -4 0 -31 37 -60 83 -64 101 -79 113 -107 85z"/>
<path d="M2831 2038 c-97 -232 -123 -299 -118 -313 4 -8 16 -15 27 -15 16 0
26 11 37 40 l16 40 77 0 77 0 18 -40 c13 -29 24 -40 40 -40 13 0 25 7 28 15 6
13 -114 314 -136 343 -20 26 -47 13 -66 -30z m67 -130 c12 -28 20 -53 18 -55
-2 -2 -24 -3 -49 -1 l-45 3 22 52 c11 29 23 53 27 53 3 0 15 -23 27 -52z"/>
<path d="M3232 2068 c-18 -18 -17 -332 2 -347 9 -8 50 -11 117 -9 103 3 104 3
104 28 0 24 -2 25 -82 28 l-83 3 0 44 0 45 56 0 c64 0 94 13 94 39 0 25 -19
31 -91 31 l-59 0 0 40 0 40 74 0 c84 0 114 16 96 51 -10 17 -22 19 -113 19
-67 0 -107 -4 -115 -12z"/>
<path d="M1643 1343 c-16 -6 -17 -35 -1 -51 7 -7 31 -12 55 -12 l43 0 0 -137
c0 -76 4 -144 9 -151 4 -8 19 -12 32 -10 24 3 24 4 27 151 l3 147 44 0 c58 0
91 30 63 58 -12 12 -248 17 -275 5z"/>
<path d="M1992 1342 c-9 -7 -12 -50 -10 -183 l3 -174 115 0 115 0 0 25 c0 24
-2 25 -82 28 l-83 3 0 44 0 45 48 0 c61 0 89 8 96 27 12 30 -14 43 -80 43
l-64 0 0 40 0 40 68 0 c79 0 114 17 96 47 -9 15 -27 18 -110 21 -54 1 -105 -2
-112 -6z"/>
<path d="M2291 1336 c-8 -9 -11 -66 -9 -182 l3 -169 25 0 25 0 3 119 3 119 43
-69 c57 -92 75 -93 133 -5 l42 64 3 -108 c3 -113 13 -137 52 -122 14 6 16 28
16 175 0 168 -5 192 -37 192 -7 0 -41 -43 -76 -95 l-63 -94 -62 94 c-61 94
-79 108 -101 81z"/>
<path d="M2722 1342 c-9 -6 -12 -50 -10 -183 l3 -174 25 0 c24 0 25 3 28 63
l3 62 59 0 c48 0 64 5 89 25 60 51 62 132 5 186 -22 21 -37 24 -107 27 -45 1
-88 -1 -95 -6z m168 -81 c28 -53 -2 -91 -72 -91 l-48 0 0 55 0 55 55 0 c43 0
56 -4 65 -19z"/>
<path d="M3100 1331 c-71 -37 -110 -129 -89 -213 39 -164 244 -197 326 -53 25
44 31 123 12 172 -13 34 -55 80 -91 99 -38 20 -117 18 -158 -5z m125 -55 c108
-46 74 -236 -43 -236 -25 0 -43 9 -68 34 -29 29 -34 41 -34 79 0 63 14 94 52
117 39 24 48 24 93 6z"/>
</g>
</svg>
